<svg width="253" height="313" xmlns="http://www.w3.org/2000/svg" preserveAspectRatio="xMinYMin meet">
 <g>
  <title>background</title>
  <rect x="-1" y="-1" width="255" height="315" id="canvas_background" fill="none"/>
 </g>

 <g>
  <title>Layer 1</title>
  <path d="m26.083,395.289l0,-34.779c0,-2.452 -1.798,-3.51 -3.917,-3.51c-4.248,0 -9.554,1.058 -14.37,3.181l0,35.108l-9.796,0l0,-64.576l9.795,0l0,21.304c4.656,-1.712 10.206,-3.18 15.758,-3.18c8.898,0 12.246,5.469 12.246,12.976l0,33.476l-9.716,0zm27.999,-21.063c0.326,11.674 2.613,13.961 9.794,13.961c5.634,0 12.002,-1.879 16.902,-3.757l1.632,7.346c-5.226,2.37 -11.593,4.655 -19.183,4.655c-16.33,0 -18.862,-8.978 -18.862,-23.268c0,-7.835 0.573,-14.939 2.45,-21.47c4.898,-1.878 11.43,-2.857 19.673,-2.857c13.393,0 17.473,7.43 17.473,20.41l0,4.98l-29.879,0zm12.406,-17.226c-2.935,0 -7.59,0.082 -11.427,0.813c-0.406,1.96 -0.899,4.655 -1.062,9.636l20.41,0c0,-6.778 -1.225,-10.449 -7.921,-10.449zm23.431,20.407l0,35.108l-9.797,0l0,-39.515c8.246,-4.489 16.981,-5.877 22.698,-6.285l0,8.164c-4,0.326 -9.064,0.816 -12.9,2.528l-0.001,0zm38.778,36.25c-14.616,0 -21.228,-7.183 -21.228,-23.594c0,-17.389 8.735,-24 21.228,-24c14.612,0 21.226,7.182 21.226,23.592c0,17.39 -8.737,24.002 -21.226,24.002zm0,-39.43c-7.512,0 -11.675,4.325 -11.675,15.836c0,12.574 3.51,15.35 11.675,15.35c7.51,0 11.674,-4.247 11.674,-15.758c0,-12.574 -3.51,-15.429 -11.674,-15.429l0,0.001zm68.49,38.288l0.893,0c-2.692,-7.184 -6.45,-14.532 -12.246,-20.9l-5.144,0l0,20.9l-9.796,0l0,-64.576l9.796,0l0,37.062l4.573,0c4.98,-5.144 8.816,-11.509 11.511,-17.797l11.02,0c-3.754,7.593 -8.57,14.287 -13.959,19.757c6.45,8.164 11.511,16.818 15.757,25.554l-12.405,0zm18.363,1.142c-8.897,0 -12.244,-5.468 -12.244,-12.98l0,-33.473l9.714,0l0,34.697c0,2.452 1.794,3.512 3.917,3.512c4.246,0 10.042,-1.06 14.86,-3.184l0,-35.025l22.203,0l0,39.35c-11.593,6.369 -20.493,7.103 -26.044,7.103l-12.406,0zm-4.328,-99.404l-182.964,0c-16.713,0 -30.258,-13.545 -30.258,-30.255l0,-256.742c0,-16.71 13.546,-30.256 30.257,-30.256l195.37,0c16.71,0 30.26,13.546 30.26,30.256l0,256.742c0,16.71 -13.55,30.255 -30.26,30.255l-12.405,0z" fill="#6762A6" id="svg_1"/>
  <path d="m158.36,286.6l0,-125.99s8.195,-30.15 -100.943,12.334c-0.2,0.539 -0.2,-116.504 -0.2,-116.504l35.66,-0.22l0,74.991s99.846,-39.325 99.846,29.824l0,125.565l-34.362,0l-0.001,0zm20.321,-184.994l-37.824,0c13.615,-16.646 25.94,-45.167 25.94,-45.167l39.11,0s-6.696,18.587 -27.225,45.167l-0.001,0zm-120.817,184.776l0,-71.748l35.878,35.877l-35.878,35.871z" fill="#FFF" id="svg_2"/>
 </g>
</svg>