<svg width="2717.6" height="2713.5" xmlns="http://www.w3.org/2000/svg">

 <g>
  <title>background</title>
  <rect fill="none" id="canvas_background" height="2715.5" width="2719.6" y="-1" x="-1"/>
 </g>
 <g>
  <title>Layer 1</title>
  <g id="svg_1" fill-rule="evenodd" clip-rule="evenodd">
   <path id="svg_2" fill="#36c5f0" d="m1029.154254,131.754254c-135.3,0.1 -244.8,109.9 -244.7,245.2c-0.1,135.3 109.5,245.1 244.8,245.2l244.8,0l0,-245.1c0.1,-135.3 -109.5,-245.1 -244.9,-245.3c0.1,0 0.1,0 0,0m0,654l-652.6,0c-135.3,0.1 -244.9,109.9 -244.8,245.2c-0.2,135.3 109.4,245.1 244.7,245.3l652.7,0c135.3,-0.1 244.9,-109.9 244.8,-245.2c0.1,-135.4 -109.5,-245.2 -244.8,-245.3z"/>
   <path id="svg_3" fill="#2eb67d" d="m2579.354254,1030.954254c0.1,-135.3 -109.5,-245.1 -244.8,-245.2c-135.3,0.1 -244.9,109.9 -244.8,245.2l0,245.3l244.8,0c135.3,-0.1 244.9,-109.9 244.8,-245.3zm-652.7,0l0,-654c0.1,-135.2 -109.4,-245 -244.7,-245.2c-135.3,0.1 -244.9,109.9 -244.8,245.2l0,654c-0.2,135.3 109.4,245.1 244.7,245.3c135.3,-0.1 244.9,-109.9 244.8,-245.3z"/>
   <path id="svg_4" fill="#ecb22e" d="m1681.854254,2584.254254c135.3,-0.1 244.9,-109.9 244.8,-245.2c0.1,-135.3 -109.5,-245.1 -244.8,-245.2l-244.8,0l0,245.2c-0.1,135.2 109.5,245 244.8,245.2zm0,-654.1l652.7,0c135.3,-0.1 244.9,-109.9 244.8,-245.2c0.2,-135.3 -109.4,-245.1 -244.7,-245.3l-652.7,0c-135.3,0.1 -244.9,109.9 -244.8,245.2c-0.1,135.4 109.4,245.2 244.7,245.3z"/>
   <path id="svg_5" fill="#e01e5a" d="m131.754254,1684.954254c-0.1,135.3 109.5,245.1 244.8,245.2c135.3,-0.1 244.9,-109.9 244.8,-245.2l0,-245.2l-244.8,0c-135.3,0.1 -244.9,109.9 -244.8,245.2zm652.7,0l0,654c-0.2,135.3 109.4,245.1 244.7,245.3c135.3,-0.1 244.9,-109.9 244.8,-245.2l0,-653.9c0.2,-135.3 -109.4,-245.1 -244.7,-245.3c-135.4,0 -244.9,109.8 -244.8,245.1c0,0 0,0.1 0,0"/>
  </g>
 </g>
</svg>