<svg width="3182" height="3184.5" xmlns="http://www.w3.org/2000/svg">
 <style type="text/css">.st0{fill:#FF26BE;}
	.st1{fill:#2E001F;}
	.st2{fill:#FFD9F2;}</style>

 <g>
  <title>background</title>
  <rect x="-1" y="-1" width="3184" height="3186.5" id="canvas_background" fill="none"/>
 </g>
 <g>
  <title>Layer 1</title>
  <path class="st0" d="m2385.277085,2802.700005l-1614.6,0c-244.8,0 -442.7,-197.9 -442.7,-442.7l0,-1552.1c0,-244.8 197.9,-442.7 442.7,-442.7l1614.6,0c244.8,0 442.7,197.9 442.7,442.7l0,1552.1c0,244.8 -197.9,442.7 -442.7,442.7z" id="svg_1"/>
  <path class="st1" d="m2345.677085,2698.500005l-1535.4,0c-208.3,0 -378.1,-169.8 -378.1,-378.1l0,-1472.9c0,-208.3 169.8,-378.1 378.1,-378.1l1534.4,0c209.4,0 378.1,169.8 378.1,378.1l0,1471.9c1,209.3 -168.8,379.1 -377.1,379.1l0,0z" id="svg_2"/>
  <path class="st2" d="m1316.477085,1505.800005l291.7,560.4c5.2,8.3 2.1,16.7 -6.3,16.7l-181.3,0c-11.5,0 -16.7,-3.1 -21.9,-13.5c-66.7,-137.5 -134.4,-275 -204.2,-422.9l-2.1,0c-62.5,139.6 -131.3,286.5 -197.9,424c-5.2,8.3 -10.4,11.5 -18.8,11.5l-171.7,0c-10.4,0 -11.5,-8.3 -6.2,-14.6l285.4,-543.8l-276,-550c-6.3,-8.3 0,-14.6 6.2,-14.6l179.2,0c10.4,0 14.6,2.1 18.7,11.5c65.6,137.5 132.3,279.2 194.8,417.7l2.1,0c60.4,-137.5 127.1,-280.2 191.7,-416.7c5.2,-8.3 8.3,-13.5 18.8,-13.5l167.7,0c8.3,0 11.5,6.3 6.3,14.6l-276.2,533.2zm342.8,169.8c0,-242.7 161.5,-432.3 417.7,-432.3c21.9,0 33.3,0 54.2,2.1l0,-276c0,-6.3 5.2,-10.4 10.4,-10.4l164.6,0c8.3,0 10.4,3.1 10.4,8.3l0,956.3c0,28.1 0,63.5 5.2,102.1c0,6.3 -2.1,8.3 -8.3,11.5c-87.5,41.7 -179.2,60.4 -266.7,60.4c-226.1,0.9 -387.6,-138.6 -387.5,-422l0,0zm471.8,-266.6c-14.6,-6.3 -35.4,-10.4 -60.4,-10.4c-131.3,0 -222.9,101 -222.9,268.8c0,191.7 93.8,268.8 211.5,268.8c25,0 52.1,-3.1 71.9,-11.5l0,-515.7l-0.1,0z" id="svg_3"/>
 </g>
</svg>