<svg width="256" height="256" xmlns="http://www.w3.org/2000/svg" preserveAspectRatio="xMinYMin meet">

 <g>
  <title>background</title>
  <rect fill="none" id="canvas_background" height="483.9" width="529.3" y="-1" x="-1"/>
 </g>
 <g>
  <title>Layer 1</title>
  <rect stroke="#000" transform="rotate(-45.36257553100586 121.05065917968757,117.45912933349611) " id="svg_6" height="164.356312" width="132.599364" y="35.280977" x="54.750978" fill-opacity="null" stroke-opacity="null" stroke-width="0" fill="#fff"/>
  <path id="svg_1" fill="#DE4C36" d="m251.172,116.594l-111.772,-111.766c-6.433,-6.437 -16.873,-6.437 -23.314,0l-23.21,23.21l29.443,29.443c6.842,-2.312 14.688,-0.761 20.142,4.693c5.48,5.489 7.02,13.402 4.652,20.266l28.375,28.376c6.865,-2.365 14.786,-0.835 20.269,4.657c7.663,7.66 7.663,20.075 0,27.74c-7.665,7.666 -20.08,7.666 -27.749,0c-5.764,-5.77 -7.188,-14.235 -4.27,-21.336l-26.462,-26.462l-0.003,69.637a19.82,19.82 0 0 1 5.188,3.71c7.663,7.66 7.663,20.076 0,27.747c-7.665,7.662 -20.086,7.662 -27.74,0c-7.663,-7.671 -7.663,-20.086 0,-27.746a19.654,19.654 0 0 1 6.421,-4.281l0,-70.286a19.378,19.378 0 0 1 -6.421,-4.281c-5.806,-5.798 -7.202,-14.317 -4.227,-21.446l-29.024,-29.027l-76.64,76.635c-6.44,6.443 -6.44,16.884 0,23.322l111.774,111.768c6.435,6.438 16.873,6.438 23.316,0l111.251,-111.249c6.438,-6.44 6.438,-16.887 0,-23.324"/>
  <rect id="svg_7" height="1" width="0" y="76.453125" x="86.5" fill-opacity="null" stroke-opacity="null" stroke-width="1.5" stroke="#000" fill="#fff"/>
 </g>
</svg>