<svg width="1185.9" height="1184.6" xmlns="http://www.w3.org/2000/svg">

 <g>
  <title>background</title>
  <rect fill="none" id="canvas_background" height="1186.6" width="1187.9" y="-1" x="-1"/>
 </g>
 <g>
  <title>Layer 1</title>
  <path id="svg_1" fill="#2489ca" d="m74.6,453.9s-24,-17.3 4.8,-40.4l67.1,-60s19.2,-20.2 39.5,-2.6l619.2,468.8l0,224.8s-0.3,35.3 -45.6,31.4l-685,-622z"/>
  <path id="svg_2" fill="#1070b3" d="m234.2,598.8l-159.6,145.1s-16.4,12.2 0,34l74.1,67.4s17.6,18.9 43.6,-2.6l169.2,-128.3l-127.3,-115.6z"/>
  <path id="svg_3" fill="#0877b9" d="m514.4,600l292.7,-223.5l-1.9,-223.6s-12.5,-48.8 -54.2,-23.4l-389.5,354.5l152.9,116z"/>
  <path id="svg_4" fill="#3c99d4" d="m759.6,1076.2c17,17.4 37.6,11.7 37.6,11.7l228.1,-112.4c29.2,-19.9 25.1,-44.6 25.1,-44.6l0,-671.2c0,-29.5 -30.2,-39.7 -30.2,-39.7l-197.7,-95.3c-43.2,-26.7 -71.5,4.8 -71.5,4.8s36.4,-26.2 54.2,23.4l0,887.5c0,6.1 -1.3,12.1 -3.9,17.5c-5.2,10.5 -16.5,20.3 -43.6,16.2l1.9,2.1z"/>
 </g>
</svg>