<svg width="406" height="400" xmlns="http://www.w3.org/2000/svg" preserveAspectRatio="xMinYMin meet">
 <g>
  <title>background</title>
  <rect x="-1" y="-1" width="408" height="402" id="canvas_background" fill="none"/>
 </g>

 <g>
  <title>Layer 1</title>
  <path d="m338.555,101.766l-23.241,260.36l-104.47,28.962l-104.182,-28.922l-23.217,-260.4l255.11,0z" fill="#E44D26" id="svg_1"/>
  <path d="m211,368.95l84.417,-23.403l19.86,-222.49l-104.277,0l0,245.893z" fill="#F16529" id="svg_2"/>
  <path d="m165.82,186.932l45.18,0l0,-31.937l-80.083,0l0.764,8.568l7.85,88.01l71.469,0l0,-31.937l-42.261,0l-2.919,-32.704zm7.198,80.61l-32.06,0l4.474,50.146l65.421,18.16l0.147,-0.04l0,-33.228l-0.14,0.037l-35.568,-9.604l-2.274,-25.471z" fill="#EBEBEB" id="svg_3"/>
  <path d="m107.18,31l16.23,0l0,16.035l14.847,0l0,-16.035l16.231,0l0,48.558l-16.23,0l0,-16.26l-14.847,0l0,16.26l-16.23,0l0,-48.558l-0.001,0zm68.65,16.103l-14.286,0l0,-16.103l44.814,0l0,16.103l-14.295,0l0,32.455l-16.23,0l0,-32.455l-0.001,0l-0.002,0zm37.64,-16.103l16.923,0l10.41,17.062l10.4,-17.062l16.93,0l0,48.558l-16.164,0l0,-24.068l-11.166,17.265l-0.28,0l-11.173,-17.265l0,24.068l-15.88,0l0,-48.558zm62.74,0l16.235,0l0,32.508l22.824,0l0,16.05l-39.06,0l0,-48.558l0.001,0z" id="svg_4"/>
  <path d="m210.89,251.573l39.327,0l-3.708,41.42l-35.62,9.614l0,33.226l65.473,-18.145l0.48,-5.396l7.506,-84.08l0.779,-8.576l-74.237,0l0,31.937zm0,-64.719l0,0.078l77.143,0l0.64,-7.178l1.456,-16.191l0.763,-8.568l-80.002,0l0,31.86l0,-0.001z" fill="#FFF" id="svg_5"/>
 </g>
</svg>