<svg width="563.3" height="562.9" xmlns="http://www.w3.org/2000/svg">
 <g>
  <title>background</title>
  <rect x="-1" y="-1" width="565.3" height="564.9" id="canvas_background" fill="none"/>
 </g>

 <g>
  <title>Layer 1</title>
  <path d="m385.9,276.1c-0.5,0.3 -18.3,-2.7 -40.7,-4.2c-18.2,-1.2 -39.5,-1.2 -56.7,0c-14,0.9 -32.4,-6.1 -34.6,2.3c-8.2,31.4 -26,58.7 -48.5,79.9c-17,16 -36.4,28.1 -57.4,35.6c-25,-12.8 -36.8,-41.4 -26.2,-66.4c8.4,-19.9 18.3,-41.7 0.1,-46.7c-13.2,-3.6 -20.5,9 -25.5,22.5c-9.7,25.9 -28.2,52.7 -33.5,84.5c-5.6,33.5 0,69.1 29,89.3c67.6,46.8 140.9,-29 218.2,-48.1c28,-6.9 58.8,-5.8 83.5,-20.1c18.5,-10.7 30.8,-28.5 34.2,-48.5c5.6,-32.2 -11.1,-64.1 -41.9,-80.1z" fill="#99425b" stroke="#fff" stroke-width="20" id="svg_1"/>
  <path d="m253.9,274.2c-8.2,31.4 -26,58.7 -48.5,79.9c-17,16 -36.4,28.1 -57.4,35.6c-25,-12.8 -36.8,-41.4 -26.2,-66.4c8.4,-19.9 18.3,-41.7 0.1,-46.7c-13.2,-3.6 -20.5,9 -25.5,22.5c-9.7,25.9 -28.2,52.7 -33.5,84.5c-5.6,33.5 0,69.1 29,89.3c67.6,46.8 140.9,-29 218.2,-48.1c28,-6.9 58.8,-5.8 83.5,-20.1c18.5,-10.7 30.8,-28.5 34.2,-48.5c5.6,-32.1 -11.1,-64.1 -41.9,-80" fill="none" stroke="#fff" stroke-width="20" id="svg_2"/>
  <path d="m315.9,149.2l54.3,110.8l65.1,-192l-239,0l65,191.6l54.6,-110.4z" fill="#99425b" id="svg_3"/>
  <path d="m315.9,149.2l54.3,110.8l65.1,-192l-239,0l65,191.6l54.6,-110.4z" fill="none" stroke="#fff" stroke-width="20" id="svg_4"/>
  <circle cx="250" cy="274.6" fill="#99425b" r="40.900002" id="svg_5"/>
  <g stroke="#fff" stroke-width="20" id="svg_6">
   <circle cx="250" cy="274.6" fill="none" r="40.900002" id="svg_7"/>
   <circle cx="383.4" cy="274.6" fill="#99425b" r="40.900002" id="svg_8"/>
   <circle cx="383.4" cy="274.6" fill="none" r="40.900002" id="svg_9"/>
  </g>
  <circle cx="116.1" cy="274.9" fill="#99425b" r="40.900002" id="svg_10"/>
  <circle cx="116.1" cy="274.9" fill="none" r="40.900002" stroke="#fff" stroke-width="20" id="svg_11"/>
 </g>
</svg>